<svg id="Layer_1" data-name="Layer 1" xmlns="http://www.w3.org/2000/svg" xmlns:xlink="http://www.w3.org/1999/xlink" viewBox="0 0 160.7 58.8">
  <defs>
    <style>
      .cls-1 {
        fill: #fff;
      }

      .cls-1, .cls-2, .cls-3, .cls-4 {
        fill-rule: evenodd;
      }

      .cls-2 {
        fill: #1d1d1b;
      }

      .cls-3 {
        fill: #f5f5f5;
      }

      .cls-4 {
        fill: #ed1c24;
      }

      .cls-5 {
        mask: url(#mask);
      }
    </style>
    <mask id="mask" x="140.15" y="0" width="20.51" height="37.64" maskUnits="userSpaceOnUse">
      <g transform="translate(-0.2 -0.2)">
        <g id="mask0">
          <path class="cls-1" d="M140.3.2h20.5V37.8H140.3Z"/>
        </g>
      </g>
    </mask>
  </defs>
  <path class="cls-2" d="M77.6,20.1c-.1.1-.3.3-.3.4a.8.8,0,0,0-.1.4.4.4,0,0,0,.1.3c0,.1.1.2.2.3l.3.2.3.2H79v-.3a.4.4,0,0,0,.1-.3c0-.1-.1-.2-.1-.3l-.2-.2h-.6l-.2-.2H78a.1.1,0,0,0-.1-.1Z" transform="translate(-0.2 -0.2)"/>
  <path class="cls-2" d="M84.4,19.1l-.2.2v.4h.2a.1.1,0,0,0,.1.1h.6v-.5H85a.1.1,0,0,0-.1-.1h-.3a.1.1,0,0,0-.1.1Z" transform="translate(-0.2 -0.2)"/>
  <path class="cls-2" d="M86.2,19.9h0v-.4c0-.1.1-.2.1-.3h.8v.4c0,.1-.1.1-.1.2s-.1.1-.2.2-.1.1-.2.1h-.5Z" transform="translate(-0.2 -0.2)"/>
  <path class="cls-2" d="M92.5,19.1l-.3.2v.3l.2.3h.4a.2.2,0,0,0,.2-.2l.2-.2a.3.3,0,0,0-.1-.2h0v-.2h-.5Z" transform="translate(-0.2 -0.2)"/>
  <path class="cls-2" d="M88.3,20.1c-.1,0-.1.1-.1.2v.2c0,.1,0,.1.1.2h.9v-.3c-.1,0-.1-.1-.1-.2a.1.1,0,0,1-.1-.1h-.7Z" transform="translate(-0.2 -0.2)"/>
  <path class="cls-2" d="M82.2,23.8v-.3a.4.4,0,0,1,.1-.3l.3-.2h.5v.4a.3.3,0,0,1-.1.2.2.2,0,0,1-.2.2c0,.1-.1.1-.2.1h-.3C82.3,24,82.3,23.9,82.2,23.8Z" transform="translate(-0.2 -0.2)"/>
  <path class="cls-2" d="M78.4,26h.5l.2-.3a.3.3,0,0,1,.1-.2h0a.1.1,0,0,1-.1-.1h-.4c-.1,0-.2,0-.2.1h-.2v.4c0,.1,0,.2.1.2h.1Z" transform="translate(-0.2 -0.2)"/>
  <path class="cls-2" d="M77.9,27a.1.1,0,0,0,.1-.1h.2v-.2a.1.1,0,0,0-.1-.1h-.2a.1.1,0,0,0-.1-.1h-.5v.2h0v.2a.1.1,0,0,1,.1.1h.2a.1.1,0,0,0,.1.1h.3Z" transform="translate(-0.2 -0.2)"/>
  <path class="cls-2" d="M75.6,28.1l-.3.2c0,.1-.1.1-.1.3V29a.6.6,0,0,0,.1.4l.3.3.3.3h.9c.2-.1.3-.2.3-.4a.4.4,0,0,0,.1-.3v-.4l-.3-.2-.2-.3-.3-.2h-.7Z" transform="translate(-0.2 -0.2)"/>
  <path class="cls-3" d="M86.6,27l-.2.2c-.1.1-.2.2-.2.3v.2c0,.1,0,.1.1.2h.5c0-.1.1-.1.2-.2l.2-.3v-.2l-.2-.2h-.4Z" transform="translate(-0.2 -0.2)"/>
  <path class="cls-2" d="M80.5,30.1h-.2v.6l.3.2h.5v-.5h-.1c0-.1-.1-.1-.1-.2h-.5Z" transform="translate(-0.2 -0.2)"/>
  <path class="cls-3" d="M87.5,30.1h-.2c0,.1-.1.1-.1.2v.5a.1.1,0,0,1,.1.1h.9v-.2h-.7Z" transform="translate(-0.2 -0.2)"/>
  <path class="cls-3" d="M91.4,32h-.2v.6h.2c0,.1,0,.1.1.2H92c.1-.1.1-.2.2-.2v-.2h-.3a.1.1,0,0,0-.1-.1h-.4Z" transform="translate(-0.2 -0.2)"/>
  <path class="cls-2" d="M74,19h.1A.1.1,0,0,0,74,19Z" transform="translate(-0.2 -0.2)"/>
  <path class="cls-2" d="M74.6,19.1l-.3.2c0,.1-.1.2-.1.3v.2H75v-.2a.4.4,0,0,0,.1-.3h-.6Z" transform="translate(-0.2 -0.2)"/>
  <path class="cls-2" d="M82.6,23H83v-.2h.1c0-.1,0-.1-.1-.2a.1.1,0,0,0-.1-.1h-.2c0-.1-.1-.1-.2-.1h-.4v.2h0c0,.1,0,.2.1.2s.1.1.1.2a.1.1,0,0,1,.1.1Z" transform="translate(-0.2 -0.2)"/>
  <path class="cls-2" d="M90.5,24.1l-.3.3v.9c.1.2.1.3.2.4l.3.3h.2a.2.2,0,0,0,.2-.2c.1-.1.1-.2.1-.4v-.4a.4.4,0,0,0-.1-.3v-.3c-.1-.1-.1-.2-.2-.2h-.2C90.6,24,90.5,24,90.5,24.1Z" transform="translate(-0.2 -0.2)"/>
  <path class="cls-2" d="M40.2,33.9l.4-.4V33Zm10.4-.4.6.5-.6-.9Z" transform="translate(-0.2 -0.2)"/>
  <path class="cls-2" d="M63.2,14.4c.6.1.9.3.9.4h-.9v-.6Zm-.4.9h0Zm-1.4,22c.1.3.2.4.4.4v-.4l-.3-.3C61.5,37,61.4,37.1,61.4,37.3Zm-.2-18.8v.2h.2l-.2-.2Zm-.3,3.8H61V22h0C61,22,60.9,22.1,60.9,22.3Zm-.4,13.9a1.1,1.1,0,0,0,.4.5v-.2c-.1-.2-.1-.3-.2-.3h-.3Zm0-20.1v.2l.2.2h.2v-.2h-.4Zm0,19.4q0,.2.3.3c.2,0,.3-.1.4-.3s-.1-.3-.4-.5h-.1C60.6,35,60.5,35.2,60.5,35.5Zm-.1-11.4h.2c.2-.1.3-.1.3-.2h-.3Zm.3-10h.1v.2h-.5Zm-.5,4.3V19l-.2.2c.1,0,.2.1.3.4h.3c.1,0,.1-.1.1-.2l-.2-.6v-.5h-.5ZM60,36.5v.4h.2l-.2-.3Zm0-6.4c.1.4.3.7.5.7h0V30H60Zm-.2-8.6h0l.5.3h.3c0-.2-.2-.3-.6-.4Zm0,.4a.4.4,0,0,0,.3.4h0v-.4Zm-.2.8h0Zm-.7,8.4h0v.3c0,.2.2.3.4.3h.1v-.3A.6.6,0,0,0,58.9,31.1Zm-.1-16.8h0Zm-.1,13.9h0l.5.8h0v-.7Zm-.4,6-.2.2.2.5h.2c.2,0,.2-.1.2-.3S58.5,34.2,58.3,34.2Zm3.1-19.5h.1V15l.2.2h.2l.6-.2h.2q-.3,0-.6,1.8h-.4l-.2-.3v-.4h-.2c0,.4-.2.6-.7.6h-.6v-.3h-.8l-.2-.7c0-.2,0-.3.1-.3v-.4h-.3l-.4.3-.2-.2a9,9,0,0,1,3-.5Zm-3.5-4.6v.3h.3c-.1-.2-.1-.3-.2-.3Zm-.4,20.6h-.1V31h.2ZM58,14.4h.1l-.4.2h-.3v-.2Zm-.8-3.9v.3h.2v-.2Zm-3,.6v.2c.2,0,.5-.2,1-.6s.8-.1.8-.2v-.3a.7.7,0,0,0-.5-.4c-.1,0-.3.3-.5.8Zm-.1,12.4h0c.2,0,.2.1.2.2h.2v-.2l-.2-.2h-.2Zm-.4-12V12H54v-.2h0v-.2Zm0-.8h0Zm-1,.4h0l.2.2h-.2Zm-.5,11.8h0v.2h.1v-.3Zm0-11.3h0v.2h-.1ZM52,20v.4h.1l.2-.4H52Zm-1.1-6.6v.2h0Zm0-.6h0Zm-.2,11.4h0l.6-.2h-.2C50.8,24,50.7,24.1,50.7,24.2Zm-.6-10.7h0ZM50,24.1h0Zm-.2-10.7h0Zm-.1,8.7a.5.5,0,0,0,.5.4h.2l.3-.2h0c0-.1-.2-.2-.7-.3ZM49.5,13h.2V13ZM49,19.6h-.1a.7.7,0,0,0,.5.4v-.2Zm-.9-5.7h.5l-.3-.3h-.2Zm1.1,3.3h.1c.1,0,.2.3.4.9l.5.4-.3.2H48.7l-.6.3c-.1,0-.1-.2-.1-.4l-.2-.2h0c0-.1.1-.1.2-.2h.2c.3-.6.5-1,.8-1Zm-.1-2.9h-.4v.5h-.6c0,.2-.3.3-.8.4a.7.7,0,0,0,.6.4h.3v.2h.2l.4-.4h.3v-.3h-.1c-.2,0-.2.1-.2.3h-.2v-.2a.9.9,0,0,1,.7-.4H50l.2-.3c0-.1-.1-.2-.4-.3l.2-.4h-.3c-.1,0-.1.1-.2.3Zm-2.2,1.8v.4H47v-.2h.2V16h-.3Zm-1,8h0l.2.2c.2,0,.2-.1.2-.3h-.4Zm.1-6.6-.2.2c.1.3.2.4.3.4h1v-.2h-.6C46.3,17.6,46.1,17.5,46,17.5Zm.5-.5h-.3c-.2,0-.3.1-.4.3h.9V17c.2,0,.3-.1.4-.3h-.4C46.6,16.8,46.5,16.9,46.5,17Zm-.9-.9c0,.1.1.2.4.2l.2-.3H46C45.7,15.9,45.6,16,45.6,16.1Zm-1.4,3.1c0,.3.1.5.3.5h0v-.4l-.2-.2h0v.2Zm-.3-.2h0Zm-.3.1h0l.2.2v-.2Zm.7-4.8h.4v.2l-.5.2-.2-.2c-.2,0-.3.1-.4.3s.2.3.7.4h0l-.2.2-1-.3h0l.2-.2h-.4A2.7,2.7,0,0,1,44.3,14.3Zm5.3,4.9h0c.4,0,.6.1.6.2L50,20v.2l-.9.3c-.3-.3-.5-.4-.7-.4h0v.2c-.4,0-.5.2-.5.4l-.2.9h-.1c-.3-.4-.4-.6-.4-.7h-.1a1,1,0,0,1-.2.7l.2.3V35.6c0,.5.6.8,1.7.8s.5.2.5.4v.7c0,.3-.1.4-.2.4H42.3V36.7c0-.3.4-.4,1.1-.4h.4c.5,0,.7-.3.7-.8V28.2a2.7,2.7,0,0,0-.9-1.5c-.5-.1-.7-.2-.7-.3h0a1.7,1.7,0,0,1,1.4-.6h.2V22h.8a.9.9,0,0,0,.7-.9.9.9,0,0,1,.3-.7h.1l.2.2h.1l.2-.3h-.2v-.2h.2l.5.5c.2,0,.5-.4.9-1.1Zm-6,.5v.2l-.2.2h-.5l-.3.6h-.3v.3a.9.9,0,0,0,.6-.3h.2l.3.3.2-.2v-.3H44a.8.8,0,0,0,.2-.5h-.4Zm-1.2-.8h.1l-.9.9h0Zm.2,3.6h.1l-.9,1.1-.2-.2h-.2v-.2h.2c.1-.3.2-.5.3-.5h.3Zm-1.9.2.2.3h.2v-.2h0v-.5h-.2C40.8,22.3,40.8,22.5,40.7,22.7Zm-.3,1.4v.2h0Zm-.2-1.8-.2.3.3.2h.2A.5.5,0,0,0,40.2,22.3Zm-.4,2.6h0ZM59.1,9h.5a10.4,10.4,0,0,1,8,3.7,7,7,0,0,1,1.6,4.6c0,3.2-1.5,6.1-4.5,8.9a17.4,17.4,0,0,1-2.6,1.5V37.8h-.3V38H60l-2.6-3.2v-.5h-.4c-3-4-4.7-6.3-5.3-6.9a4,4,0,0,0-1.8-.7v-.2c.2-.4.4-.5.6-.5h.3l-1.7-2.3h.7l-.3-.3-.5.2-1-1.5h0l.5-.4h.2v.5h.1v-.4h.1c.1,0,.2-.2.2-.6h1.3l.3-.4h.1c0,.4-.2.5-.5.5h0a1.3,1.3,0,0,0,1.1.5c.1-.2.1-.3.2-.3l.2.2h0a.8.8,0,0,0,.5-.8h-.2c-.1.2-.1.4-.2.4h-.3v-.2c0-.1.1-.1.3-.1l-.2-.2.2-.8h0c-.5,0-.8-.2-.8-.5l.2-.2h.2c0-.2.1-.3.2-.3l1.1,1.5v.4c.4.7.8,1.1,1.2,1.1v.7c0,.2.1.3.2.3l.3-.2,2.4,3.1H57a3.7,3.7,0,0,1,1.5.5v.2c0,.1-.1.2-.5.3v.7c.1,0,.1.1.1.2l.4.5c0-.2.3-.2.7-.2V23.1l.4-.3v-.3c-.2,0-.4,0-.4-.1v-.8c.1-.2.3-.3.8-.6l.3.2.5-.4h0l-.2-.2h-.1l-1.1.2h-.2v-.3l.2-.5-.2-.2V18.3h.9a.8.8,0,0,1,.8-.4h.6l.5-.2h0V18c-.2.3-.4.5-.4.6l.4.4h-.4v.5h-.4q-.2,0-.3.9l.6.5v.4h.2v-.3l-.2-.3H62v4.9h.6l.8.3c3.1-2.4,4.6-5.2,4.6-8.2s-1.9-5.3-5.7-6.6l-2.5-.4-2.9.5h0v-.8h-.2v.4h-.4c0,.4-.3.6-.7.6l-3,1.5h0l-.4-.3h0l-.2.2.2.3-.6.3a6.3,6.3,0,0,1-1.5,1.2l-1.6,1.2h-.1a1.5,1.5,0,0,1,.2.8h-.1c-.5-.3-.8-.5-.8-.8h0l-.3.2h.1v.5h-.3a.3.3,0,0,0-.3.3l.2.2v.2a.5.5,0,0,1,.3.5v.4h0l.5.5h-.9c0-.1-.3-.2-.7-.2v-.3c-.6.4-.8.6-.8.8v.2l-.6.5c0,.1,0,.2-.2.4l.2.7a.2.2,0,0,0-.2.2h-.2v-.7l-1.6,1.8h-.2l-.2-.2h0c.6-.1.8-.2.8-.3v-.3l-1-.2h-.2l.2.3v.2l-.5.3a2.6,2.6,0,0,1-.7,1.3l-.2.2h-.2l-.3-.3h-.1c-.7,0-1-.2-1-.4a3.7,3.7,0,0,1,2-1.8h.5a2,2,0,0,1,.7-1.1c-.2,0-.3,0-.3-.1v-.2q0-.3.9-.3h0v.5h.1c.1,0,.2-.1.2-.3v-.3a1.6,1.6,0,0,1,.9-.8h0l.3.3h.2c0-.1.2-.1.4-.1a1.3,1.3,0,0,0,.3-.8h-.3l-.2-.2-.2.2v.6h-.3V17.2h0l-.3.2h-.1c0-.1.1-.2.4-.3s.1-.6.2-.6h0l-.2-.3c.3,0,.4-.2.4-.7a2.1,2.1,0,0,1,1.3-.5v.2h-.7v.2l.4.2q.3-.2.3-.3h.4c.2,0,.4-.3.7-.7h.2l.3-.3h0l-.3-.3h0l.6-.5c.3,0,.4,0,.4-.2a1,1,0,0,1,.9-.4c0-.3.3-.6,1-.8a16.7,16.7,0,0,1,5.4-2.6l1.9-.3h.1C57.9,9.1,58.3,9,59.1,9Zm-20,17.3h0l.2.2h.1l-.2-.2Zm-1.4-.6a.5.5,0,0,0,.4.2l.2-.2-.2-.2h-.2Zm-.5,1,.2.3a.7.7,0,0,0,.4-.5v-.2h-.1A.5.5,0,0,0,37.2,26.7Zm-.4,1h0l.6.2h0v-.2h-.2l.2-.3c-.1-.2-.1-.3-.2-.3h-.1C37,27,36.9,27.2,36.8,27.7Zm-1.5,3.4.2.2h.1v-.2h-.2Zm0,.7V32h0Zm-.1.9h-.1v.3h.2V33C35.3,32.8,35.3,32.7,35.2,32.7Zm-.3,1h0Zm-.2-.5h0l.2-.2h0Zm-.3-1.1h0v0Zm-.1-.4v.2h.2Zm-.6,3.6h0l.2.2H34v-.3h0Zm-.4-.6h0c.2-.1.3-.1.3-.2h-.3Zm-.1,1.6h.1v-.2h-.1Zm-.1-.6h0Zm-.2.4Zm-1.6,2.7V39h0Zm-2.2,3.8Zm12-18.9h.1c.3.1.4.2.4.3l-.2.2H41c-.4.9-.8,1.3-1.2,1.3v.3l.2.3.5-.6h0l-.5.8-.2-.2h-.2v.2l.2.2a6.8,6.8,0,0,1-1,1.4h-.1v-.3h-.2l.2.4c-.7,1.1-2.1,3.3-4,6.6h-.2l-.9,1.5a50.9,50.9,0,0,1-3.6,6h-.2a3.1,3.1,0,0,1-.9,1.5c-.9,1.6-3.1,4.1-6.3,7.4l-2.4,2v.2C15.9,56.3,12.5,58,10,58.6a12.5,12.5,0,0,1-3.1.4A7.5,7.5,0,0,1,.2,55.3v-.7H.4l1.4,1.7a7.3,7.3,0,0,0,5,1.8c4.7,0,10.1-2.8,16.1-8.5a43.8,43.8,0,0,0,6.8-9,61.7,61.7,0,0,0,2.9-5.8h.2V35h0c.1,0,.3-.2.4-.5l-.2-.4c.6-1.4,1.4-2.9,2.2-4.5l.4-.4.9-.3.2-.6v-.2H36l.7-1.3c.7-1.4,1.2-2.1,1.6-2.1h-.1v-.2c0-.1.2-.2.4-.2s.6.1.6.4h.1l.9-.5c0-.1,0-.2.2-.3h.3Z" transform="translate(-0.2 -0.2)"/>
  <path class="cls-2" d="M79.7,29.5v.2h0Zm-.8-6.2h0Zm0-.4h.2c0,.1,0,.2.1.2h-.3Zm-.4,7.3h.1v-.2Zm0-1h0Zm-.1-4.6v.2h-.1Zm-.1-.2h0Zm0-1.1h0v-.2h0Zm-.1,6.5h0l.2.2v-.3h-.3Zm.1-6h0v.2h-.2v-.2Zm0-1.8v.2l.3-.2h.9v1h-.8a.3.3,0,0,0-.3-.3.4.4,0,0,0-.1-.3l-.2-.3h.2Zm-.2,6.9Zm-.4-5.3h0v-.2h0Zm-.2,5.3h.4v-.2Zm0-2h0Zm-.3,1.6v.2h.2v-.2h-.3Zm0-5.8h0a1.2,1.2,0,0,0,.9.6h0c-.2,0-.3-.1-.3-.4h-.2c-.2-.1-.4-.3-.4-.4Zm-.1,5.4h.3v-.2h-.3Zm-.1-1h.1a.9.9,0,0,1,.8.4h-.3l-.6-.3Zm0-3.4h0Zm.9-1.7a3.2,3.2,0,0,1,.2.6v.2c.2,0,.4.2.7.6h-.3l.9-.3h.2V24h-.1c0-.1-.1-.2-.2-.4h-.3c.4.4.6.7.6,1v.6h-.2v.3H79c0-.1,0-.1-.2-.1h0v-.7h0l.4.3h0l-.5-.4v-.6h-.1c0,.3,0,.5-.1.5v-.7l-.3.3H78c-.1,0-.2,0-.2-.2h-.1c-.8-.6-1.2-1.2-1.2-1.7h1.4Zm-1.6,1.8h0Zm-.1.5h.2v-.2h-.2Zm-.4,0H76v-.2Zm-.3,0h0ZM62.6,22h6.5v6.4h.4q1.2.3,1.2.6v.2c-1.1.2-1.6.7-1.6,1.4v1.2c0,2.1.7,3.2,2.3,3.2h.3c1.7,0,2.8-1.2,3.3-3.8v-.6h0c0-.6-.5-1-1.7-1.4h0a1.9,1.9,0,0,1,1.5-.6H75v-.7h0V25.7q0-2.1-.9-2.1c-1.3,0-2-.1-2-.2v-1c0-.3.2-.4.6-.4h3.6l.5,1c.7.6,1,1,1,1.1h-.1c-.8.1-1.3.5-1.3,1.1a3.4,3.4,0,0,1,1.1,1.6h0v-.2a4.2,4.2,0,0,0-.9-1.4v-.3l.3-.2c0-.3.2-.4.6-.4h.3c.1,0,.4.4.8,1.4h-.2l-.5-.5h0l.2.4h-.1c-.1,0-.2.2-.4.7h.1V27h-.9l-.4.3h-.4v.5h.2l.2-.2c.1.8.3,1.1.7,1.1a1.2,1.2,0,0,1-.6-.9v-.2h.1l.5-.3.9.8H78c0,.3.2.5.6.7h.2a1.1,1.1,0,0,0,.8.3l.3-.2a.9.9,0,0,0,.6.3h.1l.7.5h0l-1.1.4c-.4.4-.7.7-.7,1.1v4A1.3,1.3,0,0,0,81,36.2h1l.2.2v1.3H75.3l-.2-.2V34.8c-1.5,2.1-3.3,3.2-5.5,3.2a4.7,4.7,0,0,1-4.7-3.2,7.9,7.9,0,0,1-.4-2.8V30.7c0-.7-.6-1.2-1.7-1.4h0a1.5,1.5,0,0,1,1.4-.7h.3V24.9c0-.9-.4-1.3-1.2-1.3s-1.1-.1-1.1-.3V22.2C62.2,22.1,62.3,22,62.6,22Z" transform="translate(-0.2 -0.2)"/>
  <path class="cls-2" d="M94.6,24.4h-.1l.2.2h.2ZM94.5,34v.4l.4.2h0C94.7,34.2,94.6,34,94.5,34Zm-.2-2.7v.4a.5.5,0,0,0,.4.5c.2,0,.3-.1.3-.2s-.2-.4-.4-.7Zm-.6-6.7v.2c0,.3.1.5.2.5h.2v-.2l-.4-.5ZM93.4,26h0l.5.5h0a.7.7,0,0,0,.4-.5v-.2a.5.5,0,0,0-.5-.3A.8.8,0,0,0,93.4,26Zm-.8-2.1c0,.3.1.4.3.4h0c.2,0,.3-.1.3-.4l-.3-.3h-.1C92.7,23.6,92.7,23.7,92.6,23.9Zm0-.8h0l.2.2h.1Zm-.7,1.1h.3v-.2h-.2Zm-2.1,7.5v.2c.2,0,.4.2.5.5h.1l.3-.5c-.1-.3-.1-.4-.2-.4Zm.3-3.1.2.4h-.4l-.2.8,1,.4L91,30c0-1.2-.1-1.7-.3-1.7Zm-1,2.2-.3.6h.1l.4-.3h.4C89.5,31,89.3,30.8,89.1,30.8Zm-1.3-3.2c0,.2.1.3.2.3h.1l-.2-.3ZM87.4,29v.2h.3v-.4h-.1Zm-1.6-6.4h0ZM85,27.5l.4.3h0c0-.2-.1-.3-.3-.4Zm-.6,8.9h-.1l.3.4h.1v-.2h0q-.1,0-.3-.3Zm-.3-8.2a1.7,1.7,0,0,1,.6,1.1c.2,0,.3.1.3.4h.3a1,1,0,0,0,.5-.7h-.1v-.4a.4.4,0,0,0-.4-.2h-.5l-.4-.3Zm0-1.2h0c0,.1.1.2.3.2h0Zm-.5.3h0V27h0Zm-.1,7.4v.2c0,.1.2.2.4.2v-.4a.5.5,0,0,0-.2-.4h-.1C83.6,34.3,83.5,34.5,83.5,34.7ZM88.8,22A14,14,0,0,1,93,23l1.3-1h.8c.2,0,.2.2.2.5v4.6c0,.3,0,.5-.2.5h-.7c-.2-.1-.9-1-2.3-2.6l-.8-.7-.5-.2.3-.3c-.1-.2-.1-.3-.2-.3h-.1l-.4.4a5,5,0,0,0-1.9-.3h0v-.4c0-.1-.1-.3-.4-.5s-.4.2-.4.5h0l.2.3h0a2.3,2.3,0,0,0-1.2.5h-.5v.6c-.2,0-.2,0-.2.1v.5h-.6v.4c-.1,0-.2-.2-.2-.5a1.7,1.7,0,0,1-.8-1.2l.2-.2h-.4v.2l.4,1.2h-.2c-.1,0-.1-.2-.2-.5l-.4-.2h-.1c0,.4-.1.7-.3.7H83l.2-.3h.2v-.2a5.4,5.4,0,0,1,1.9-1.8h.1c.1,0,.1,0,.1.2v.3l.9.4h.4a1.8,1.8,0,0,1,.5-.7v-.5c0-.3.2-.5.6-.5Zm-6,10.9h0l.2.2h.2c.1,0,.2-.2.2-.4h0l-.3-.3A.5.5,0,0,0,82.8,32.9Zm0-5.6v.2h0l.2-.3h-.2Zm.2-2q.6.1.6.6c.1,0,.2,0,.2.1H83l.2.8h.1L84,26l.7.3v-.2l-.3-.5h.1q.3.2.3.3v.5l.6.2h0l.2-.4h.5A3.5,3.5,0,0,0,88,27.3h.1a27.4,27.4,0,0,1,6,1.7h.1a2,2,0,0,1,1.5-.6h.2a2.2,2.2,0,0,1,1.3.6v.2a1.7,1.7,0,0,0-1.7,1.2,4.1,4.1,0,0,1,.5,2.3c0,2.5-1.5,4.1-4.5,5l-1.9.2q-2.8-.2-3-.6h-.2l-.4.2L84.8,37c-.7.7-1.2,1-1.4,1h-.8c-.2-.1-.3-.2-.3-.6v-.5h.1c.2.2.3.3.5.3a.3.3,0,0,0,.3-.3h0l-.6-.4h-.3V33.5l.3-.5a.2.2,0,0,1-.2-.2v-.4l.2-.3h1A6.2,6.2,0,0,1,85,34.3c.2,0,.6.3,1.3,1a7.9,7.9,0,0,0,2.4,1.1h0l-.2.2a.6.6,0,0,0,.6.3h.1v-.2l-.3-.2h.6c2.1,0,3.1-.6,3.1-2s-1.4-1.9-4.3-2.3c-.7-.2-1-.3-1-.4h.1c-.2,0-.3-.2-.4-.5h-.1a.8.8,0,0,0,.2.4H87l-.6-.7H86c0,.2-.1.3-.2.3a5,5,0,0,1-1.8-1c.2-.1.2-.3.2-.6s-.2-.3-.6-.5h0l.2-.9h-1a1.5,1.5,0,0,1-.2-.8V27A5.9,5.9,0,0,1,83,25.3Zm-.6,3.5h.2c0,.2.2.4.6.5v.4h-.1a.7.7,0,0,1-.8-.7l-.2-.2Z" transform="translate(-0.2 -0.2)"/>
  <path class="cls-2" d="M110.9,24.3h-.3l.2.4h.1a.6.6,0,0,0,.2-.5h-.2Zm-.5,2.9v.3l.3.3h.2c0-.2-.1-.3-.3-.4Zm-1.3-1.5v.5h.3l-.2-.4Zm-.7,1.7c.2.5.4.8.7.8l.3-.2v-.3a.7.7,0,0,0-.6-.7c-.2,0-.3.1-.3.4Zm0-3.7q.1.3.3.3h.1l-.2-.3h-.2Zm0,1.8v.2h.1v-.2Zm-.3.6-.2.2.2.3h.1l.2-.2h0C108.4,26.2,108.3,26.1,108.1,26.1Zm-.5-3.2v.2h.1c.1,0,.2-.2.3-.4h-.3C107.7,22.6,107.7,22.7,107.6,22.9Zm-.2,4.3h.1v.3h-.1c-.1,0-.1-.1-.2-.3h.2Zm-.3-4.6v.2h.1v-.2Zm-.6,14.6.2.2h-.2Zm-2.2-12.9h0l.4.3h.4l-.2-.6h-.2Zm-1.7.3h0v.3l.2-.2h-.3Zm0,8.8h0v-.3h0Zm0-7.6h.2l.4-.3v-.2h-.2A.5.5,0,0,0,102.6,25.8Zm-.8,1.4h.2c.1,0,.2-.1.2-.3v-.2H102A.5.5,0,0,0,101.8,27.2Zm-.1-1.6h.7c-.1-.3-.2-.5-.3-.5A.5.5,0,0,0,101.7,25.6Zm-.5,3.1c.1.6.3.9.5.9s.5-.3.5-.5-.3-.7-.6-.7h-.2Zm-.3,7.1h.1c.3,0,.4-.1.4-.4h-.1C101,35.6,100.9,35.7,100.9,35.8Zm-.1-11.6.2.2c.3-.1.4-.5.4-1h0l-.2.5Zm-.3-.9h0l.2-.2h0Zm-.4,2.4v.2l.2.2h.1v-.3h-.3Zm-.1,1.2c0,.4.1.7.4.8s.4-.2.5-.6-.3-.7-.4-.7h0C100.1,26.4,100,26.6,100,26.9Zm-.1,2.8.5.5h.1q.1,0,.3-.6c-.3-.2-.4-.3-.6-.3Zm-.2,3.7v.2c0,.2.1.3.2.3s.1,0,.1-.1-.1-.4-.2-.4Zm-.2-8.5.7.5h.2c.1,0,.2-.2.3-.5s-.2-.4-.6-.5Zm-2.9-2.3h-.1v.2h.2Zm11.3-.6h.7c.1,0,.1.1.2.4s.3.1.4.3h0a.9.9,0,0,0-.3.5h.3a1.2,1.2,0,0,1-.6.9h-.3c-.1.3-.3.5-.5.5v.3c-.3.1-.4.1-.4.2v.2l.7-.2h.1l.8.3.2-.3-.2-.3h.2c.1,0,.1.1.1.3h.4c.2,0,.3.3.4.9h.3c0,.1-.1.1-.3.2s.1.4.2.4,1.1-.6,1.1-1.1a.6.6,0,0,0-.5-.6h-.5v.4h-.1c-.1,0-.1-.1-.1-.2v-.4h-.1l.7-1.1h-.6l-.6-.5h-.1a.5.5,0,0,1-.5-.3h0c0-.1.1-.2.3-.2h.9c0,.2.4.4,1.1.6a1.4,1.4,0,0,1,.4,1c.2,0,.2.1.2.2v.2l-.3.3v.2c0,.1.2.2.5.2v.2a1.8,1.8,0,0,1-.6,1.3H111a.9.9,0,0,1,.3.5,2.6,2.6,0,0,1-2,.8,2.7,2.7,0,0,1-1.7-.6.9.9,0,0,0,.3-.6v-.3h-.1l-.2.3h-.1l-.6-.4v-.8h.4l.2-.2c-.2,0-.2-.1-.2-.4h-.3a2.1,2.1,0,0,1,1-1.2l.4-.2h-.5a2.8,2.8,0,0,0-1.7.5h-.3l-.2.2h.1c-1.3,1.3-2,2-2,2.3v1.8h.5c.8.2,1.2.4,1.2.7l-.6.2-.3-.4-.3.2h0l.3.3c-.5.3-.7.6-.7,1v3.1c.1,1.6.4,2.4.8,2.4h2.2c.4,0,.5.3.5.7s0,.9-.2.9H96.9c-.1,0-.2-.2-.2-.6s.1-.9.2-.9h1.6c.3,0,.5-.2.5-.6V30.7a1,1,0,0,0-.5-.8v-.3c-.3,0-.4-.1-.4-.2l-.4.2h-.1l-.2-.2h0a1.7,1.7,0,0,1,1.4-.6H99V27.2l.2-.3c-.1,0-.2-.4-.2-1.2s-.6-1.8-1.9-1.8-.9-.1-.9-.3V22.3h4.4c-.6,0-1,.1-1.2.5H98.2a.9.9,0,0,0-.3.6h.2l2.8-.5h.1a3.3,3.3,0,0,1,1.2.2l-.2.4c.1.2.1.3.2.3h.1l.9-.3h.1v.6a6.4,6.4,0,0,1,1.9-1.3v.3h.2c.6-.2.9-.4.9-.8A4,4,0,0,1,107.9,22Z" transform="translate(-0.2 -0.2)"/>
  <path class="cls-2" d="M123.1,28.5H123Zm-.3.1.2.2h-.1l-.2-.2Zm-.7.6h0Zm-.4,2.5.2.2h0l-.2-.2Zm-.1-.1Zm-.3-.4h.2Zm-.7,2.4.2.2h-.2Zm-.6.9h.1v-.2Zm.2-8H120Zm-.4.2h.2l-.4.4h0Zm.1,7.6h0V35h-.1l-.2-.2C119.5,34.5,119.6,34.4,119.9,34.3Zm-.6-1.2v.2l-.3.3c.1,0,.3.2.5.6h0l-.2.2h-.1v-.4h0l-.2-.2h-.3v-.3Zm-.9.5h0Zm0-6.6h0Zm-.1,7h0Zm-.3-.4h0Zm-2.8-7h0Zm-.1.2h0v.3h-.2v-.3Zm-.7-.5h.2v0Zm0,1.4h0Zm1.8-1.4h.1l.2.7c.2,0,.3-.1.3-.2h1.1l.3-.3c.5.2.8.4.9.7h.3v-.2h.5v.2h-.4a3.3,3.3,0,0,1,1,1.8V30a2.6,2.6,0,0,1-1,1.9h.4v.3h-.1l-.6-.2a1.6,1.6,0,0,1-1.2.5v.2h.1v.4a.2.2,0,0,0,.2.2h.1l-.3.6c-.4,0-.6-.3-.8-.9a.9.9,0,0,1,.3-.6h-.1a3.7,3.7,0,0,1-2.1-.8,1.2,1.2,0,0,1-.4.8l-.3-.2v-.2l.3-.2v.2h0v-.6a2.4,2.4,0,0,1-.6-1.4h-.5l.2-.3c-.2,0-.2-.1-.2-.2a1,1,0,0,0,.6-1v-.2c.2,0,.3-.1.4-.3h-.1c.2,0,.2-.1.2-.3l-.9-1.1h.1l.5.6h.2l.3.2v-.2h0a.6.6,0,0,0,.5.2l.7-.3v-.8Zm-2.8,2.4h0Zm0-2.7h0Zm-1.2,2.8h0Z" transform="translate(-0.2 -0.2)"/>
  <path class="cls-4" d="M126.3,17.4h0Zm-.4-.7h.2v.2h-.2Zm-.3.5h.2l-.2.2h0Zm-.2,18.2Zm0-17.7h0Zm-.6,18.4h.1v-.3h-.1Zm0-19.4h0v.2h.1v.2l-.4.2h0C124.6,16.9,124.7,16.7,124.8,16.7Zm-1.9-1.2h.5v.2h0c-.5,0-.7-.2-.7-.4Zm4.3-.5h.1c.1,0,.3.3.5.8v1.1h0a2.2,2.2,0,0,1-.1,1v.3h-.4c0,.2-.1.3-.2.3h0v-.2H127l-.3.7a1.4,1.4,0,0,1,.4.8H127V21l.2.3-.2.6c.2.5.3.7.4.7s.3-.1.4-.5v-.2h-.3l-.2-.4a1.4,1.4,0,0,1,.2-.9v-.4a5.2,5.2,0,0,1,.2-1.1h.1v.3h.1l.2-.7v-.7a2,2,0,0,1,.6-1.4v-.2h-.3v.3h-.1v-1h.1l.5.2h11.5c.3,0,.4.1.4.2v5.6c.3.4.4.6.4.8v.3c0,.5-.3.8-1,.8s-1.1-.5-1.3-1.5a9.6,9.6,0,0,0-5-4.4h-4v9H133a2,2,0,0,0,1.9-.9v-.8a1.6,1.6,0,0,0-1.1-1.4h-.2V23c0-.1.3-.2,1-.2a2.7,2.7,0,0,1,2.8,2v.5a2,2,0,0,1-1.4,1.9,2.6,2.6,0,0,1,1.4,2.1v.4c0,.9-.7,1.6-2,2.1h-.8c-.7,0-1-.1-1-.2v-.2l.8-.4a1.7,1.7,0,0,0,.5-1.3h0c0-.9-.7-1.3-2.1-1.5h-3.2v8.3q0,.9,1.2.9h1.5c1.6,0,3.5-1.3,5.7-3.8a12,12,0,0,0,1.3-2.3,1.1,1.1,0,0,1,.7-.3,1,1,0,0,1,1.1,1,2.9,2.9,0,0,1-.5,1l-.4,5.9-.3.2H122.2V37.6c0-.2.6-.3,1.9-.4a2.4,2.4,0,0,0,.3-1.4V30.7l1-.4V30h-.6a.5.5,0,0,1-.4-.2v-.8c0-.7-.5-1.3-1.5-1.6h-.2v-.2q0-.3,1.2-.6h.5V18l.2-.2c0,.3.2.5.8.7h0c-.3,0-.4.1-.4.3v.2h.2v.3a1.1,1.1,0,0,0-.3.7.5.5,0,0,1,.2.4H125l.2.9h-.1l.3,2.1v2.6h.3c.1,0,.2-.2.2-.5v-.3h0V24.3l-.2-.6.2-.2v-.3h-.2l-.2-2.1h.2c-.1,0-.2-.3-.3-.8a1.8,1.8,0,0,1,.4-.9h0v-.4c.1,0,.2-.1.2-.3h0v-.3h.1l.3.2.2-.2h0v.2h0l.3-.2h0v-.2h0l.4-1.2c0-.5-.1-.8-.3-.8s-.2.2-.3.4h0l-.5-.4h-.5l-.2.2H125l-.2.3h-.2c-.1,0-.2.1-.2.3h-.1l-.3-.3h0v-.7h.6a3.6,3.6,0,0,1,1.3.5A2.3,2.3,0,0,1,127.2,15Z" transform="translate(-0.2 -0.2)"/>
  <g class="cls-5">
    <path class="cls-4" d="M156.6,18.5v.2l.2.3h.1v-.2C156.9,18.6,156.8,18.5,156.6,18.5Zm-.7.5.2.2h0V19Zm-2.2,2.7h.1v-.2Zm-.1-.6.3.2.9-.4.7.2.2-.4a1,1,0,0,0-.4-.5l-.7.5C153.9,20.9,153.6,21,153.6,21.1Zm-.8,1.1h.2v-.2Zm0-1.1.3.3c.1,0,.2-.1.2-.3h0a.2.2,0,0,0-.2-.2l-.2.2Zm-.7,1.2h0ZM150.6,2h.2v.2l-.3.4h-.1V2.2ZM148.8.2h0Zm-.5,6.3h0ZM148.2.4h.2l.2.2h0c0,.2-.1.4-.2.4h-.2L148,.9h0C148,.6,148.1.4,148.2.4ZM148,7.1v.2h0Zm-.2,17v.3c.2,0,.3-.1.3-.2v-.3h0Zm-.4-3.6h0Zm-.9-3.8h0v-.2h0Zm-.2-4.2.2.2h-.2Zm0-.5h.2v-.4h-.2Zm-.1-4.5h0Zm-.2,5.9h0Zm-.1-2.1h.1v-.2h-.1Zm-.7,1h.1v-.2h-.1Zm-.1,1.2h0Zm-.4-3.5h0Zm-.3,3.7v.2h-.1Zm-.9-6.1h0Zm-.3,6.3h.1v.3l-.3.3h0l-.2-.2C142.8,14.1,142.9,13.9,143.2,13.9Zm-.8,11.2h.1v.2h-.1ZM142,28h.1v-.2H142Zm-.1,1.7h.3v.2h-.2Zm-.5-2.8h0Zm.2-14.2h.1V13l-.2.2h-.1v-.4Zm-.8,5.8h0ZM150.9,3.7c4,0,6.9,1.3,8.8,4.1a6.5,6.5,0,0,1,1.1,4,10.6,10.6,0,0,1-3.1,7.7l-.5.5a22,22,0,0,1-5,3.2c-.7.1-1,.4-1,.6l-1.4.2h-.3a.7.7,0,0,1-.7.5h-.3c0,.1-.3.3-.9.5h.1c0,.1-.1.1-.2.1h-.2v2.6h.1c.1,0,.2.1.2.3h.2c0,.1.3.2.8.4l.4.4h0c0,.1-.3.3-1,.4a1.9,1.9,0,0,0-.7,1.4v2.6c0,1.1.3,1.7,1.1,1.7h.2c.9,0,1.5-.8,1.7-2.5s.2-1.1.7-1.1h.1q.9,0,.9.3c0,4.2-1.7,6.2-5.1,6.2s-4.3-1.5-4.3-4.5v-3c0-.5-.6-1-1.8-1.4h0c0-.2.5-.5,1.3-.7h.5c-.2,0-.2-.1-.2-.2h.2V26.5l-.3-.3h-.1v.8h-.1v.4h-.1l.2-1.4c-.2,0-.2-.1-.2-.2h.1l.4.2h.1l-.2-.2h.2v-.3h0v-.5h0v-.9h-1.5c-.6,0-.9,0-.9-.2V22.5c0-.1.5-.2,1.3-.5a7,7,0,0,0,2.9-2.6,7.3,7.3,0,0,0,.5-2.2v-.3l.2-2.3h.1V14h.1v1.8l.2.2v1.4h0c.1-1.4.2-3.4.4-5.8h.2l-.2,3.9v.9h.2v1h.2V13.2h.3c-.1,0-.2.1-.2.3v.3h.1v.6h.1v.2a.2.2,0,0,1,.2.2v.2h.1v.7h-.1v1.1h.4l.2.2v4h0v-.7h.1V22h.2a7.5,7.5,0,0,0,2.4-.4h.3c0-.1.1-.2.3-.2s.2.4.3.4h.1l.2-.2-.2-.4a15.5,15.5,0,0,0,3.6-1.9l.4.2.2-.2h.2l.4.3h0a.2.2,0,0,0-.2-.2h-.3V19h0l2-1.9a10.2,10.2,0,0,0,1.1-2,6.8,6.8,0,0,0,.8-3.4V11c0-2.5-1.4-4.4-4.4-5.7a11.4,11.4,0,0,0-4.1-.7,12.7,12.7,0,0,0-6.5,1.9l-1.3,1.2h-.2c0-.5.7-1.2,2-2.2V4.6h.2v.7h0A12.3,12.3,0,0,1,150.9,3.7Z" transform="translate(-0.2 -0.2)"/>
  </g>
</svg>
